<svg width="50" height="48" viewBox="0 0 50 48" fill="none" xmlns="http://www.w3.org/2000/svg">
<path d="M8 6H42V0H8V6ZM44 8V40H50V8H44ZM42 42H8V48H42V42ZM6 40V8H0V40H6ZM8 42C6.89543 42 6 41.1046 6 40H0C0 44.4183 3.58172 48 8 48V42ZM44 40C44 41.1046 43.1046 42 42 42V48C46.4183 48 50 44.4183 50 40H44ZM42 6C43.1046 6 44 6.89543 44 8H50C50 3.58172 46.4183 0 42 0V6ZM8 0C3.58172 0 0 3.58172 0 8H6C6 6.89543 6.89543 6 8 6V0Z" fill="white" fill-opacity="0.25"/>
<path d="M3 8C3 5.23858 5.23858 3 8 3H42C44.7614 3 47 5.23858 47 8V40C47 42.7614 44.7614 45 42 45H8C5.23858 45 3 42.7614 3 40V8Z" fill="black"/>
<path d="M10 14H40" stroke="#fff"/>
<path d="M10 24H40" stroke="#fff"/>
<path d="M10 34H40" stroke="#fff"/>
</svg>
