<svg xmlns="http://www.w3.org/2000/svg" width="800" height="250" viewBox="0 0 800 250"><g transform="translate(260.8627548217795,90.08356695101195)translate(135.75484848021335,62.77158600277595)rotate(0)translate(-135.75484848021335,-62.77158600277595)" opacity="1"><filter id="shadow_0" x="-62.86458468437195" y="-62.86458468437195" width="271.5096969604267" height="125.5431720055519"><feGaussianBlur stdDeviation="5.238095238095238"/><feOffset dx="0" dy="0"/></filter><path transform="translate(12,63.41359458636831)rotate(0)" d="M12.76-62.95L29.20-62.95L38.56-32.79L58.66-62.95L75.19-62.95L64.08 0L48.26 0L54.56-35.50L41.09-14.34L29.64-14.34L23.69-35.50L17.40 0L1.66 0L12.76-62.95ZM110.51-63.56L110.51-63.56L110.51-63.56Q131.58-63.56 131.58-46.34L131.58-46.34L131.58-46.34Q131.58-43.45 130.97-40.13L130.97-40.13L127.91-22.64L127.91-22.64Q125.81-10.49 118.82-4.63L118.82-4.63L118.82-4.63Q111.82 1.22 99.14 1.22L99.14 1.22L99.14 1.22Q86.47 1.22 81.48-4.63L81.48-4.63L81.48-4.63Q78.07-8.66 78.07-15.74L78.07-15.74L78.07-15.74Q78.07-18.88 78.77-22.64L78.77-22.64L81.83-40.13L81.83-40.13Q85.94-63.56 110.51-63.56ZM101.50-12.33L101.50-12.33L101.50-12.33Q105.88-12.33 108.50-14.60L108.50-14.60L108.50-14.60Q111.12-16.87 112.17-22.99L112.17-22.99L115.14-39.78L115.14-39.78Q115.41-41.53 115.41-42.93L115.41-42.93L115.41-42.93Q115.41-50.01 108.24-50.01L108.24-50.01L108.24-50.01Q99.23-49.83 97.48-39.78L97.48-39.78L94.51-22.99L94.51-22.99Q94.16-20.81 94.16-18.45L94.16-18.45L94.16-18.45Q94.16-12.33 101.50-12.33ZM145.66-62.95L171.01-62.95L171.01-62.95Q180.98-62.95 185.17-58.58L185.17-58.58L185.17-58.58Q188.32-55.25 188.32-50.18L188.32-50.18L188.32-50.18Q188.32-48.44 187.97-46.51L187.97-46.51L186.75-39.69L186.75-39.69Q185.70-34.01 183.12-30.51L183.12-30.51L183.12-30.51Q180.54-27.02 177.39-25.53L177.39-25.53L185.35 0L167.69 0L160.34-23.52L154.92-23.52L151.34 0L134.55 0L145.66-62.95ZM165.50-49.31L165.50-49.31L158.94-49.31L156.67-34.10L162.79-34.10L162.79-34.10Q167.43-34.10 169.44-36.33L169.44-36.33L169.44-36.33Q171.45-38.56 171.45-42.23L171.45-42.23L171.45-42.23Q171.45-49.31 165.50-49.31ZM225.91-63.56L225.91-63.56L225.91-63.56Q246.99-63.56 246.99-46.34L246.99-46.34L246.99-46.34Q246.99-43.45 246.37-40.13L246.37-40.13L243.31-22.64L243.31-22.64Q241.21-10.49 234.22-4.63L234.22-4.63L234.22-4.63Q227.23 1.22 214.55 1.22L214.55 1.22L214.55 1.22Q201.87 1.22 196.89-4.63L196.89-4.63L196.89-4.63Q193.48-8.66 193.48-15.74L193.48-15.74L193.48-15.74Q193.48-18.88 194.18-22.64L194.18-22.64L197.24-40.13L197.24-40.13Q201.35-63.56 225.91-63.56ZM216.91-12.33L216.91-12.33L216.91-12.33Q221.28-12.33 223.90-14.60L223.90-14.60L223.90-14.60Q226.53-16.87 227.58-22.99L227.58-22.99L230.55-39.78L230.55-39.78Q230.81-41.53 230.81-42.93L230.81-42.93L230.81-42.93Q230.81-50.01 223.64-50.01L223.64-50.01L223.64-50.01Q214.64-49.83 212.89-39.78L212.89-39.78L209.92-22.99L209.92-22.99Q209.57-20.81 209.57-18.45L209.57-18.45L209.57-18.45Q209.57-12.33 216.91-12.33Z" fill="#362f85" stroke="#362f85" stroke-width="16" stroke-linejoin="round" stroke-miterlimit="2" opacity="1" style="filter:url(#shadow_0)"/><path transform="translate(12,63.41359458636831)rotate(0)" d="M12.76-62.95L29.20-62.95L38.56-32.79L58.66-62.95L75.19-62.95L64.08 0L48.26 0L54.56-35.50L41.09-14.34L29.64-14.34L23.69-35.50L17.40 0L1.66 0L12.76-62.95ZM110.51-63.56L110.51-63.56L110.51-63.56Q131.58-63.56 131.58-46.34L131.58-46.34L131.58-46.34Q131.58-43.45 130.97-40.13L130.97-40.13L127.91-22.64L127.91-22.64Q125.81-10.49 118.82-4.63L118.82-4.63L118.82-4.63Q111.82 1.22 99.14 1.22L99.14 1.22L99.14 1.22Q86.47 1.22 81.48-4.63L81.48-4.63L81.48-4.63Q78.07-8.66 78.07-15.74L78.07-15.74L78.07-15.74Q78.07-18.88 78.77-22.64L78.77-22.64L81.83-40.13L81.83-40.13Q85.94-63.56 110.51-63.56ZM101.50-12.33L101.50-12.33L101.50-12.33Q105.88-12.33 108.50-14.60L108.50-14.60L108.50-14.60Q111.12-16.87 112.17-22.99L112.17-22.99L115.14-39.78L115.14-39.78Q115.41-41.53 115.41-42.93L115.41-42.93L115.41-42.93Q115.41-50.01 108.24-50.01L108.24-50.01L108.24-50.01Q99.23-49.83 97.48-39.78L97.48-39.78L94.51-22.99L94.51-22.99Q94.16-20.81 94.16-18.45L94.16-18.45L94.16-18.45Q94.16-12.33 101.50-12.33ZM145.66-62.95L171.01-62.95L171.01-62.95Q180.98-62.95 185.17-58.58L185.17-58.58L185.17-58.58Q188.32-55.25 188.32-50.18L188.32-50.18L188.32-50.18Q188.32-48.44 187.97-46.51L187.97-46.51L186.75-39.69L186.75-39.69Q185.70-34.01 183.12-30.51L183.12-30.51L183.12-30.51Q180.54-27.02 177.39-25.53L177.39-25.53L185.35 0L167.69 0L160.34-23.52L154.92-23.52L151.34 0L134.55 0L145.66-62.95ZM165.50-49.31L165.50-49.31L158.94-49.31L156.67-34.10L162.79-34.10L162.79-34.10Q167.43-34.10 169.44-36.33L169.44-36.33L169.44-36.33Q171.45-38.56 171.45-42.23L171.45-42.23L171.45-42.23Q171.45-49.31 165.50-49.31ZM225.91-63.56L225.91-63.56L225.91-63.56Q246.99-63.56 246.99-46.34L246.99-46.34L246.99-46.34Q246.99-43.45 246.37-40.13L246.37-40.13L243.31-22.64L243.31-22.64Q241.21-10.49 234.22-4.63L234.22-4.63L234.22-4.63Q227.23 1.22 214.55 1.22L214.55 1.22L214.55 1.22Q201.87 1.22 196.89-4.63L196.89-4.63L196.89-4.63Q193.48-8.66 193.48-15.74L193.48-15.74L193.48-15.74Q193.48-18.88 194.18-22.64L194.18-22.64L197.24-40.13L197.24-40.13Q201.35-63.56 225.91-63.56ZM216.91-12.33L216.91-12.33L216.91-12.33Q221.28-12.33 223.90-14.60L223.90-14.60L223.90-14.60Q226.53-16.87 227.58-22.99L227.58-22.99L230.55-39.78L230.55-39.78Q230.81-41.53 230.81-42.93L230.81-42.93L230.81-42.93Q230.81-50.01 223.64-50.01L223.64-50.01L223.64-50.01Q214.64-49.83 212.89-39.78L212.89-39.78L209.92-22.99L209.92-22.99Q209.57-20.81 209.57-18.45L209.57-18.45L209.57-18.45Q209.57-12.33 216.91-12.33Z" fill="none" stroke="#FFFFFF" stroke-width="16" stroke-linejoin="round" stroke-miterlimit="2"/><path transform="translate(12,63.41359458636831)rotate(0)" d="M12.76-62.95L29.20-62.95L38.56-32.79L58.66-62.95L75.19-62.95L64.08 0L48.26 0L54.56-35.50L41.09-14.34L29.64-14.34L23.69-35.50L17.40 0L1.66 0L12.76-62.95ZM110.51-63.56L110.51-63.56L110.51-63.56Q131.58-63.56 131.58-46.34L131.58-46.34L131.58-46.34Q131.58-43.45 130.97-40.13L130.97-40.13L127.91-22.64L127.91-22.64Q125.81-10.49 118.82-4.63L118.82-4.63L118.82-4.63Q111.82 1.22 99.14 1.22L99.14 1.22L99.14 1.22Q86.47 1.22 81.48-4.63L81.48-4.63L81.48-4.63Q78.07-8.66 78.07-15.74L78.07-15.74L78.07-15.74Q78.07-18.88 78.77-22.64L78.77-22.64L81.83-40.13L81.83-40.13Q85.94-63.56 110.51-63.56ZM101.50-12.33L101.50-12.33L101.50-12.33Q105.88-12.33 108.50-14.60L108.50-14.60L108.50-14.60Q111.12-16.87 112.17-22.99L112.17-22.99L115.14-39.78L115.14-39.78Q115.41-41.53 115.41-42.93L115.41-42.93L115.41-42.93Q115.41-50.01 108.24-50.01L108.24-50.01L108.24-50.01Q99.23-49.83 97.48-39.78L97.48-39.78L94.51-22.99L94.51-22.99Q94.16-20.81 94.16-18.45L94.16-18.45L94.16-18.45Q94.16-12.33 101.50-12.33ZM145.66-62.95L171.01-62.95L171.01-62.95Q180.98-62.95 185.17-58.58L185.17-58.58L185.17-58.58Q188.32-55.25 188.32-50.18L188.32-50.18L188.32-50.18Q188.32-48.44 187.97-46.51L187.97-46.51L186.75-39.69L186.75-39.69Q185.70-34.01 183.12-30.51L183.12-30.51L183.12-30.51Q180.54-27.02 177.39-25.53L177.39-25.53L185.35 0L167.69 0L160.34-23.52L154.92-23.52L151.34 0L134.55 0L145.66-62.95ZM165.50-49.31L165.50-49.31L158.94-49.31L156.67-34.10L162.79-34.10L162.79-34.10Q167.43-34.10 169.44-36.33L169.44-36.33L169.44-36.33Q171.45-38.56 171.45-42.23L171.45-42.23L171.45-42.23Q171.45-49.31 165.50-49.31ZM225.91-63.56L225.91-63.56L225.91-63.56Q246.99-63.56 246.99-46.34L246.99-46.34L246.99-46.34Q246.99-43.45 246.37-40.13L246.37-40.13L243.31-22.64L243.31-22.64Q241.21-10.49 234.22-4.63L234.22-4.63L234.22-4.63Q227.23 1.22 214.55 1.22L214.55 1.22L214.55 1.22Q201.87 1.22 196.89-4.63L196.89-4.63L196.89-4.63Q193.48-8.66 193.48-15.74L193.48-15.74L193.48-15.74Q193.48-18.88 194.18-22.64L194.18-22.64L197.24-40.13L197.24-40.13Q201.35-63.56 225.91-63.56ZM216.91-12.33L216.91-12.33L216.91-12.33Q221.28-12.33 223.90-14.60L223.90-14.60L223.90-14.60Q226.53-16.87 227.58-22.99L227.58-22.99L230.55-39.78L230.55-39.78Q230.81-41.53 230.81-42.93L230.81-42.93L230.81-42.93Q230.81-50.01 223.64-50.01L223.64-50.01L223.64-50.01Q214.64-49.83 212.89-39.78L212.89-39.78L209.92-22.99L209.92-22.99Q209.57-20.81 209.57-18.45L209.57-18.45L209.57-18.45Q209.57-12.33 216.91-12.33Z" fill="#362f85"/></g><g transform="translate(30.488080301129237,29.90603851577582)translate(99.34567126725176,95.22913792744828)rotate(0)translate(-99.34567126725176,-95.22913792744828) scale(0.5487589347329649,0.5487589347329649)" opacity="1"><defs class="defs"><linearGradient id="linearGradient818b57001f4e28ccbec1159725db5e11" class="linearGradient1" gradientTransform="translate(0.5,0.5) rotate(270) translate(-0.5,-0.5)" x1="50%" y1="0%" x2="50%" y2="100%"><stop id="stop1" offset="0%" class="linearGradientColor1" stop-color="#4df1fd"/><stop id="stop2" offset="100%" class="linearGradientColor2" stop-color="#9241fe"/></linearGradient><linearGradient id="linearGradient03cadf72d81c60ec9250df61d41a7ade" class="linearGradient2" gradientTransform="translate(0.5,0.5) rotate(90) translate(-0.5,-0.5)" x1="50%" y1="0%" x2="50%" y2="100%"><stop id="stop1" offset="0%" class="linearGradientColor1" stop-color="#4df1fd"/><stop id="stop2" offset="100%" class="linearGradientColor2" stop-color="#9241fe"/></linearGradient><linearGradient id="linearGradient85e8823f2f0908444714a98e6d64813f" class="linearGradient3" gradientTransform="translate(0.5,0.5) rotate(0) translate(-0.5,-0.5)" x1="50%" y1="0%" x2="50%" y2="100%"><stop id="stop1" offset="0%" class="linearGradientColor1" stop-color="#4df1fd"/><stop id="stop2" offset="100%" class="linearGradientColor2" stop-color="#9241fe"/></linearGradient></defs><g>
    <path fill="url(#linearGradient818b57001f4e28ccbec1159725db5e11)" d="M46.117,184.352c0,12.765-10.293,23.059-23.058,23.059S0,197.117,0,184.352&#10;&#9;&#9;c0-12.765,10.293-23.059,23.058-23.059S46.117,171.587,46.117,184.352z M69.38,134.53c-11.117,0-19.97,8.853-19.97,19.97&#10;&#9;&#9;c0,11.118,8.853,19.972,19.97,19.972c11.117,0,19.97-8.854,19.97-19.972C89.352,143.382,80.499,134.53,69.38,134.53z&#10;&#9;&#9; M112.204,120.324c-9.058,0-16.47,7.412-16.47,16.47c0,9.059,7.412,16.471,16.47,16.471c9.059,0,16.469-7.412,16.469-16.471&#10;&#9;&#9;C128.673,127.737,121.263,120.324,112.204,120.324z M150.497,118.678c-7,0-12.56,5.559-12.56,12.559s5.56,12.558,12.56,12.558&#10;&#9;&#9;s12.559-5.559,12.559-12.558C163.056,124.442,157.497,118.678,150.497,118.678z M184.878,121.354&#10;&#9;&#9;c-5.971,0-10.913,4.94-10.913,10.912c0,5.971,4.941,10.912,10.913,10.912c5.971,0,10.912-4.941,10.912-10.912&#10;&#9;&#9;C195.791,126.294,190.849,121.354,184.878,121.354z M212.671,128.766c-4.94,0-9.059,4.117-9.059,9.059s4.117,9.06,9.059,9.06&#10;&#9;&#9;c4.943,0,9.06-4.117,9.06-9.06C221.524,132.882,217.613,128.766,212.671,128.766z M51.47,90.679c-11.118,0-19.97,8.853-19.97,19.97&#10;&#9;&#9;s8.853,19.97,19.97,19.97c11.117,0,19.97-8.853,19.97-19.97C71.439,99.531,62.381,90.679,51.47,90.679z M94.292,76.679&#10;&#9;&#9;c-9.058,0-16.47,7.411-16.47,16.47c0,9.058,7.412,16.47,16.47,16.47c9.059,0,16.47-7.412,16.47-16.47&#10;&#9;&#9;C110.763,83.883,103.351,76.679,94.292,76.679z M132.585,75.031c-7,0-12.559,5.559-12.559,12.559s5.559,12.56,12.559,12.56&#10;&#9;&#9;s12.559-5.56,12.559-12.56S139.585,75.031,132.585,75.031z M166.966,77.501c-5.971,0-10.911,4.941-10.911,10.911&#10;&#9;&#9;c0,5.971,4.94,10.912,10.911,10.912s10.912-4.94,10.912-10.912C177.673,82.443,172.937,77.501,166.966,77.501z M194.555,85.119&#10;&#9;&#9;c-4.94,0-9.06,4.118-9.06,9.06c0,4.939,4.119,9.058,9.06,9.058s9.06-4.118,9.06-9.058&#10;&#9;&#9;C203.613,89.031,199.496,85.119,194.555,85.119z M215.966,97.678c-4.117,0-7.617,3.5-7.617,7.617c0,4.118,3.5,7.617,7.617,7.617&#10;&#9;&#9;s7.617-3.5,7.617-7.617C223.583,101.179,220.289,97.678,215.966,97.678z M88.733,38.59c-9.059,0-16.47,7.412-16.47,16.471&#10;&#9;&#9;s7.412,16.47,16.47,16.47s16.47-7.411,16.47-16.47S97.792,38.59,88.733,38.59z M127.026,36.944c-7,0-12.558,5.559-12.558,12.559&#10;&#9;&#9;s5.559,12.56,12.558,12.56c7,0,12.559-5.56,12.559-12.56S134.026,36.944,127.026,36.944z M161.202,39.62&#10;&#9;&#9;c-5.971,0-10.912,4.941-10.912,10.911c0,5.971,4.941,10.912,10.912,10.912s10.912-4.941,10.912-10.912&#10;&#9;&#9;C172.114,44.356,167.378,39.62,161.202,39.62z M188.996,47.032c-4.94,0-9.059,4.117-9.059,9.059s4.118,9.06,9.059,9.06&#10;&#9;&#9;c4.94,0,9.06-4.118,9.06-9.06S193.936,47.032,188.996,47.032z M210.408,59.796c-4.119,0-7.619,3.5-7.619,7.617&#10;&#9;&#9;c0,4.118,3.5,7.618,7.619,7.618c4.117,0,7.616-3.5,7.616-7.618C218.024,63.09,214.73,59.796,210.408,59.796z M226.671,75.031&#10;&#9;&#9;c-3.705,0-6.793,3.088-6.793,6.794s3.088,6.794,6.793,6.794s6.793-3.089,6.793-6.794C233.464,77.913,230.376,75.031,226.671,75.031&#10;&#9;&#9;z" class="color c1"/>
    <path fill="url(#linearGradient03cadf72d81c60ec9250df61d41a7ade)" d="M261.464,327.643c6.176,11.117,20.176,15.234,31.293,9.265c11.117-6.177,15.234-20.176,9.266-31.293&#10;&#9;&#9;c-6.178-11.118-20.176-15.235-31.293-9.265C259.611,302.525,255.494,316.525,261.464,327.643z M215.76,299.85&#10;&#9;&#9;c5.354,9.676,17.294,13.176,26.972,8.028c9.676-5.354,13.176-17.294,8.027-26.97c-5.354-9.677-17.295-13.177-26.971-8.029&#10;&#9;&#9;C214.113,278.026,210.613,290.174,215.76,299.85z M183.025,268.969c4.324,8.028,14.411,10.911,22.234,6.589&#10;&#9;&#9;c7.824-4.324,10.912-14.412,6.589-22.235c-4.324-8.029-14.412-10.912-22.233-6.588&#10;&#9;&#9;C181.585,251.057,178.702,260.938,183.025,268.969z M163.261,236.027c3.294,5.971,10.912,8.235,16.882,4.941&#10;&#9;&#9;c5.972-3.295,8.236-10.911,4.941-16.883c-3.293-5.971-10.911-8.234-16.881-4.94S159.966,230.058,163.261,236.027z M149.056,204.734&#10;&#9;&#9;c2.882,5.353,9.47,7.206,14.822,4.323c5.354-2.882,7.207-9.471,4.324-14.823c-2.882-5.354-9.471-7.205-14.822-4.323&#10;&#9;&#9;C148.231,192.794,146.173,199.382,149.056,204.734z M142.468,176.735c2.471,4.323,7.822,5.971,12.146,3.5&#10;&#9;&#9;c4.323-2.471,5.971-7.825,3.5-12.148c-2.47-4.323-7.822-5.971-12.146-3.5C141.644,166.853,139.997,172.411,142.468,176.735z&#10;&#9;&#9; M185.908,336.495c5.354,9.677,17.293,13.177,26.971,8.029c9.677-5.354,13.176-17.293,8.029-26.97&#10;&#9;&#9;c-5.354-9.677-17.295-13.177-26.972-8.029C184.261,314.673,180.761,326.819,185.908,336.495z M153.173,305.614&#10;&#9;&#9;c4.324,8.028,14.41,10.911,22.234,6.588c8.03-4.323,10.912-14.412,6.588-22.235c-4.323-8.028-14.413-10.91-22.234-6.588&#10;&#9;&#9;C151.731,287.703,148.85,297.79,153.173,305.614z M133.409,272.674c3.293,5.972,10.91,8.235,16.881,4.94&#10;&#9;&#9;c5.972-3.294,8.235-10.911,4.941-16.882c-3.294-5.97-10.912-8.234-16.882-4.94C132.173,259.086,130.114,266.703,133.409,272.674z&#10;&#9;&#9; M119.204,241.38c2.881,5.354,9.469,7.206,14.822,4.324c5.354-2.883,7.206-9.471,4.323-14.823&#10;&#9;&#9;c-2.882-5.354-9.47-7.205-14.823-4.322C118.38,229.645,116.32,236.233,119.204,241.38z M112.616,213.381&#10;&#9;&#9;c2.469,4.324,7.823,5.972,12.146,3.5c4.323-2.471,5.971-7.822,3.5-12.146c-2.47-4.323-7.823-5.971-12.146-3.5&#10;&#9;&#9;C111.792,203.705,110.145,209.058,112.616,213.381z M113.438,188.677c2.059,3.705,6.588,5.146,10.294,3.088&#10;&#9;&#9;c3.705-2.059,5.146-6.588,3.088-10.294c-2.059-3.705-6.588-5.146-10.294-3.089C112.82,180.44,111.379,184.97,113.438,188.677z&#10;&#9;&#9; M122.497,328.673c4.323,8.029,14.412,10.911,22.234,6.589c8.029-4.324,10.912-14.412,6.588-22.235&#10;&#9;&#9;c-4.324-8.029-14.412-10.911-22.234-6.588C121.057,310.761,118.173,320.849,122.497,328.673z M102.732,295.731&#10;&#9;&#9;c3.294,5.971,10.912,8.234,16.882,4.94c5.971-3.294,8.235-10.91,4.941-16.882c-3.294-5.971-10.912-8.233-16.882-4.94&#10;&#9;&#9;C101.498,282.144,99.438,289.762,102.732,295.731z M88.527,264.439c2.882,5.353,9.471,7.205,14.823,4.322&#10;&#9;&#9;c5.353-2.883,7.206-9.472,4.324-14.823c-2.882-5.354-9.471-7.205-14.823-4.323C87.705,252.703,85.646,259.291,88.527,264.439z&#10;&#9;&#9; M81.939,236.439c2.471,4.323,7.823,5.97,12.147,3.5c4.323-2.471,5.97-7.824,3.5-12.147c-2.471-4.321-7.824-5.97-12.147-3.499&#10;&#9;&#9;C81.117,226.764,79.469,232.115,81.939,236.439z M82.764,211.733c2.059,3.707,6.588,5.146,10.293,3.089&#10;&#9;&#9;c3.706-2.059,5.147-6.588,3.088-10.294c-2.059-3.705-6.588-5.146-10.294-3.089C82.145,203.499,80.705,208.028,82.764,211.733z&#10;&#9;&#9; M88.322,190.117c1.853,3.293,5.97,4.529,9.265,2.677c3.294-1.854,4.529-5.971,2.676-9.265s-5.971-4.529-9.265-2.677&#10;&#9;&#9;C87.705,182.706,86.469,186.823,88.322,190.117z" class="color c2"/>
    <path fill="url(#linearGradient85e8823f2f0908444714a98e6d64813f)" d="M291.111,35.502c6.795-10.706,3.707-25.116-7.205-31.911c-10.705-6.794-25.117-3.705-31.912,7.206&#10;&#9;&#9;c-6.793,10.706-3.705,25.117,7.207,31.911C270.111,49.502,284.318,46.208,291.111,35.502z M288.847,89.031&#10;&#9;&#9;c5.971-9.265,3.088-21.618-6.178-27.588c-9.264-5.97-21.617-3.088-27.588,6.176c-5.969,9.266-3.088,21.617,6.178,27.587&#10;&#9;&#9;C270.73,101.178,283.082,98.295,288.847,89.031z M277.935,132.677c4.941-7.617,2.678-17.911-5.146-22.646&#10;&#9;&#9;c-7.617-4.941-17.91-2.676-22.646,5.147c-4.939,7.616-2.676,17.911,5.146,22.646C262.906,142.56,272.994,140.294,277.935,132.677z&#10;&#9;&#9; M258.789,166.03c3.705-5.765,2.059-13.588-3.912-17.294c-5.764-3.706-13.588-2.059-17.293,3.912&#10;&#9;&#9;c-3.707,5.765-2.059,13.588,3.91,17.293C247.259,173.441,255.082,171.793,258.789,166.03z M238.201,193.41&#10;&#9;&#9;c3.293-5.146,1.646-11.732-3.295-15.028c-5.146-3.294-11.734-1.646-15.027,3.296c-3.295,5.146-1.647,11.732,3.293,15.027&#10;&#9;&#9;C228.113,199.999,234.906,198.559,238.201,193.41z M216.996,212.97c2.676-4.117,1.44-9.678-2.678-12.354&#10;&#9;&#9;c-4.117-2.676-9.676-1.439-12.354,2.677c-2.676,4.118-1.44,9.678,2.678,12.354S214.318,217.087,216.996,212.97z M335.58,97.267&#10;&#9;&#9;c5.971-9.266,3.09-21.617-6.176-27.587c-9.266-5.971-21.617-3.089-27.588,6.176c-5.971,9.264-3.088,21.617,6.176,27.587&#10;&#9;&#9;C317.257,109.413,329.609,106.737,335.58,97.267z M324.462,140.911c4.941-7.617,2.676-17.911-5.145-22.646&#10;&#9;&#9;c-7.617-4.941-17.912-2.678-22.648,5.146c-4.939,7.617-2.676,17.911,5.148,22.646C309.433,150.999,319.523,148.736,324.462,140.911&#10;&#9;&#9;z M305.316,174.265c3.707-5.766,2.059-13.588-3.912-17.294c-5.764-3.706-13.588-2.06-17.293,3.911&#10;&#9;&#9;c-3.705,5.765-2.059,13.589,3.912,17.294C293.787,181.882,301.611,180.029,305.316,174.265z M284.728,201.852&#10;&#9;&#9;c3.295-5.147,1.646-11.735-3.295-15.029c-5.145-3.294-11.732-1.646-15.027,3.294c-3.295,5.146-1.646,11.734,3.295,15.029&#10;&#9;&#9;C274.847,208.44,281.435,206.793,284.728,201.852z M263.523,221.205c2.676-4.118,1.441-9.677-2.678-12.353&#10;&#9;&#9;c-4.115-2.678-9.676-1.441-12.352,2.676s-1.441,9.677,2.676,12.353C255.289,226.558,260.847,225.322,263.523,221.205z&#10;&#9;&#9; M241.494,232.527c2.266-3.5,1.236-8.234-2.264-10.499c-3.502-2.266-8.234-1.235-10.5,2.265c-2.266,3.499-1.234,8.234,2.266,10.499&#10;&#9;&#9;C234.496,237.057,239.23,236.027,241.494,232.527z M359.462,156.559c4.941-7.618,2.676-17.911-5.146-22.646&#10;&#9;&#9;c-7.617-4.94-17.91-2.676-22.646,5.147c-4.939,7.618-2.676,17.911,5.146,22.646C344.433,166.647,354.726,164.381,359.462,156.559z&#10;&#9;&#9; M340.316,189.911c3.705-5.765,2.059-13.588-3.912-17.294c-5.766-3.706-13.588-2.059-17.293,3.912&#10;&#9;&#9;c-3.707,5.765-2.061,13.589,3.91,17.295C328.992,197.528,336.611,195.677,340.316,189.911z M319.728,217.498&#10;&#9;&#9;c3.293-5.146,1.646-11.733-3.295-15.027c-5.146-3.295-11.734-1.646-15.029,3.294c-3.293,5.146-1.646,11.733,3.295,15.028&#10;&#9;&#9;C309.845,224.087,316.64,222.439,319.728,217.498z M298.523,236.852c2.676-4.118,1.439-9.678-2.678-12.354&#10;&#9;&#9;c-4.117-2.676-9.676-1.439-12.352,2.677c-2.678,4.117-1.441,9.678,2.676,12.354C290.494,242.204,295.845,240.969,298.523,236.852z&#10;&#9;&#9; M276.494,248.174c2.266-3.5,1.234-8.233-2.266-10.499c-3.498-2.265-8.234-1.234-10.498,2.266c-2.266,3.5-1.236,8.233,2.264,10.499&#10;&#9;&#9;C269.494,252.703,274.228,251.675,276.494,248.174z M254.876,253.733c2.059-3.088,1.029-7.412-2.059-9.471&#10;&#9;&#9;c-3.088-2.06-7.412-1.03-9.471,2.059c-2.061,3.088-1.029,7.412,2.059,9.471C248.701,257.851,252.818,256.821,254.876,253.733z" class="color c3"/>
  </g></g><g transform="translate(527.7649002078745,85.34027613079748)translate(124.28974532282805,72.62246507479296)rotate(0)translate(-124.28974532282805,-72.62246507479296)" opacity="1"><path transform="translate(12,71.72387150492682)rotate(0)" d="M48.37-67.26L48.37-67.26Q63.52-67.26 71.19-61.45L71.19-61.45L71.19-61.45Q78.87-55.64 78.87-44.43L78.87-44.43L78.87-44.43Q78.87-38.88 76.85-31.61L76.85-31.61L76.85-31.61Q73.52-19.89 67.86-13.03L67.86-13.03L67.86-13.03Q62.21-6.16 52.97-3.03L52.97-3.03L52.97-3.03Q43.73 0.10 29.29 0L29.29 0L1.82-0.10L1.82-0.10Q-0.30-0.10-1.46-0.81L-1.46-0.81L-1.46-0.81Q-2.63-1.51-2.63-2.73L-2.63-2.73L-2.63-2.73Q-2.63-3.33-2.32-4.04L-2.32-4.04L-2.32-4.04Q-2.02-4.95-1.46-5.35L-1.46-5.35L-1.46-5.35Q-0.91-5.76 0.20-6.46L0.20-6.46L0.20-6.46Q1.82-7.37 2.78-8.48L2.78-8.48L2.78-8.48Q3.74-9.59 4.44-12.02L4.44-12.02L16.76-55.44L16.76-55.44Q17.17-56.75 17.17-57.97L17.17-57.97L17.17-57.97Q17.17-59.08 16.81-59.83L16.81-59.83L16.81-59.83Q16.46-60.59 15.85-61.60L15.85-61.60L15.85-61.60Q14.95-62.91 14.95-63.72L14.95-63.72L14.95-63.72Q14.95-64.02 15.15-64.83L15.15-64.83L15.15-64.83Q15.55-66.14 16.91-66.70L16.91-66.70L16.91-66.70Q18.28-67.26 21.11-67.26L21.11-67.26L48.37-67.26ZM51.00-33.83L51.00-33.83Q53.62-43.32 53.62-48.78L53.62-48.78L53.62-48.78Q53.62-54.13 51.40-56.15L51.40-56.15L51.40-56.15Q49.18-58.17 45.04-58.17L45.04-58.17L42.82-58.17L29.18-9.09L31.61-9.09L31.61-9.09Q36.25-9.09 39.43-11.06L39.43-11.06L39.43-11.06Q42.62-13.03 45.34-18.33L45.34-18.33L45.34-18.33Q48.07-23.63 51.00-33.83L51.00-33.83ZM143.90-67.26L143.90-67.26Q147.64-67.26 149.71-65.64L149.71-65.64L149.71-65.64Q151.78-64.02 151.78-61.20L151.78-61.20L151.78-61.20Q151.78-59.78 151.38-58.47L151.38-58.47L148.75-49.08L148.75-49.08Q148.04-46.35 146.68-45.29L146.68-45.29L146.68-45.29Q145.32-44.23 142.79-44.23L142.79-44.23L142.79-44.23Q140.37-44.23 139.01-45.29L139.01-45.29L139.01-45.29Q137.64-46.35 136.94-48.78L136.94-48.78L135.32-54.53L135.32-54.53Q134.81-56.35 134.11-56.96L134.11-56.96L134.11-56.96Q133.40-57.56 131.38-57.56L131.38-57.56L120.78-57.56L115.73-39.59L120.17-39.59L120.17-39.59Q120.88-39.59 122.09-40.60L122.09-40.60L125.52-43.63L125.52-43.63Q127.04-44.94 128.15-45.54L128.15-45.54L128.15-45.54Q129.26-46.15 130.88-46.15L130.88-46.15L130.88-46.15Q132.69-46.15 133.86-45.19L133.86-45.19L133.86-45.19Q135.02-44.23 135.02-42.72L135.02-42.72L135.02-42.72Q135.02-42.31 134.81-41.50L134.81-41.50L130.67-27.47L130.67-27.47Q130.07-25.25 128.60-24.19L128.60-24.19L128.60-24.19Q127.14-23.13 125.42-23.13L125.42-23.13L125.42-23.13Q122.60-23.13 121.18-26.05L121.18-26.05L119.46-29.59L119.46-29.59Q118.76-31.10 117.24-31.10L117.24-31.10L113.30-31.10L107.35-9.69L116.23-9.69L116.23-9.69Q118.15-9.69 119.62-10.45L119.62-10.45L119.62-10.45Q121.08-11.21 122.80-13.13L122.80-13.13L128.86-19.79L128.86-19.79Q130.47-21.51 131.94-22.27L131.94-22.27L131.94-22.27Q133.40-23.02 135.52-23.02L135.52-23.02L135.52-23.02Q137.74-23.02 139.16-22.01L139.16-22.01L139.16-22.01Q140.57-21.00 140.57-18.99L140.57-18.99L140.57-18.99Q140.57-18.18 140.27-17.07L140.27-17.07L137.34-6.87L137.34-6.87Q136.23-3.03 134.11-1.51L134.11-1.51L134.11-1.51Q131.99 0 127.95 0L127.95 0L79.78 0L79.78 0Q77.66 0 76.50-0.71L76.50-0.71L76.50-0.71Q75.33-1.41 75.33-2.63L75.33-2.63L75.33-2.63Q75.33-3.23 75.64-3.94L75.64-3.94L75.64-3.94Q76.04-5.05 76.95-5.66L76.95-5.66L76.95-5.66Q77.86-6.26 78.06-6.36L78.06-6.36L78.06-6.36Q79.68-7.37 80.69-8.43L80.69-8.43L80.69-8.43Q81.70-9.49 82.40-11.92L82.40-11.92L94.82-55.44L94.82-55.44Q95.23-56.75 95.23-57.86L95.23-57.86L95.23-57.86Q95.23-59.08 94.88-59.88L94.88-59.88L94.88-59.88Q94.52-60.69 93.81-61.60L93.81-61.60L93.81-61.60Q92.91-62.91 92.91-63.72L92.91-63.72L92.91-63.72Q92.91-64.02 93.11-64.83L93.11-64.83L93.11-64.83Q93.51-66.14 94.93-66.70L94.93-66.70L94.93-66.70Q96.34-67.26 99.07-67.26L99.07-67.26L143.90-67.26ZM232.16-67.26L232.16-67.26Q234.49-67.26 235.70-66.40L235.70-66.40L235.70-66.40Q236.91-65.54 236.91-64.13L236.91-64.13L236.91-64.13Q236.91-63.52 236.81-63.22L236.81-63.22L236.81-63.22Q236.51-61.90 235.60-61.25L235.60-61.25L235.60-61.25Q234.69-60.59 232.67-59.78L232.67-59.78L232.67-59.78Q229.94-58.57 227.77-57.41L227.77-57.41L227.77-57.41Q225.60-56.25 222.77-53.82L222.77-53.82L202.68-36.76L212.47-12.93L212.47-12.93Q213.48-10.50 214.74-9.19L214.74-9.19L214.74-9.19Q216.01-7.88 217.82-6.66L217.82-6.66L217.82-6.66Q219.14-5.66 219.64-5.10L219.64-5.10L219.64-5.10Q220.15-4.54 220.15-3.53L220.15-3.53L220.15-3.53Q220.15-1.72 218.93-0.86L218.93-0.86L218.93-0.86Q217.72 0 214.90 0L214.90 0L187.73 0L187.73 0Q185.10 0 183.84-0.86L183.84-0.86L183.84-0.86Q182.58-1.72 182.58-3.13L182.58-3.13L182.58-3.13Q182.58-3.74 182.68-4.04L182.68-4.04L182.68-4.04Q182.88-4.75 183.39-5.30L183.39-5.30L183.39-5.30Q183.89-5.86 184.40-6.26L184.40-6.26L184.40-6.26Q185.21-6.97 185.61-7.57L185.61-7.57L185.61-7.57Q186.01-8.18 186.01-9.29L186.01-9.29L186.01-9.29Q186.01-11.01 184.90-13.73L184.90-13.73L181.37-22.32L172.18-13.73L172.18-13.73Q169.35-11.21 169.35-9.19L169.35-9.19L169.35-9.19Q169.35-8.28 169.76-7.67L169.76-7.67L169.76-7.67Q170.16-7.07 171.07-6.06L171.07-6.06L171.07-6.06Q171.98-5.15 172.43-4.34L172.43-4.34L172.43-4.34Q172.89-3.53 172.58-2.63L172.58-2.63L172.58-2.63Q172.18-1.11 170.92-0.56L170.92-0.56L170.92-0.56Q169.65 0 166.93 0L166.93 0L145.82 0L145.82 0Q143.50 0 142.29-0.86L142.29-0.86L142.29-0.86Q141.08-1.72 141.08-3.13L141.08-3.13L141.08-3.13Q141.08-3.74 141.18-4.04L141.18-4.04L141.18-4.04Q141.48-5.35 142.39-6.01L142.39-6.01L142.39-6.01Q143.30-6.66 145.32-7.47L145.32-7.47L145.32-7.47Q148.14-8.68 150.32-9.90L150.32-9.90L150.32-9.90Q152.49-11.11 155.21-13.43L155.21-13.43L177.23-32.32L168.14-54.33L168.14-54.33Q167.13-56.75 165.87-58.07L165.87-58.07L165.87-58.07Q164.61-59.38 162.79-60.59L162.79-60.59L162.79-60.59Q161.47-61.60 160.97-62.16L160.97-62.16L160.97-62.16Q160.46-62.71 160.46-63.72L160.46-63.72L160.46-63.72Q160.46-65.54 161.68-66.40L161.68-66.40L161.68-66.40Q162.89-67.26 165.72-67.26L165.72-67.26L192.88-67.26L192.88-67.26Q195.51-67.26 196.77-66.40L196.77-66.40L196.77-66.40Q198.03-65.54 198.03-64.13L198.03-64.13L198.03-64.13Q198.03-63.52 197.93-63.22L197.93-63.22L197.93-63.22Q197.73-62.51 197.22-61.95L197.22-61.95L197.22-61.95Q196.72-61.40 196.21-60.99L196.21-60.99L196.21-60.99Q195.41-60.29 195.00-59.68L195.00-59.68L195.00-59.68Q194.60-59.08 194.60-57.97L194.60-57.97L194.60-57.97Q194.60-56.35 195.71-53.52L195.71-53.52L198.54-46.76L205.81-53.52L205.81-53.52Q208.74-56.15 208.74-58.07L208.74-58.07L208.74-58.07Q208.74-58.98 208.28-59.63L208.28-59.63L208.28-59.63Q207.83-60.29 206.92-61.20L206.92-61.20L206.92-61.20Q206.72-61.40 206.16-62.06L206.16-62.06L206.16-62.06Q205.60-62.71 205.40-63.37L205.40-63.37L205.40-63.37Q205.20-64.02 205.40-64.63L205.40-64.63L205.40-64.63Q205.81-66.14 207.07-66.70L207.07-66.70L207.07-66.70Q208.33-67.26 211.06-67.26L211.06-67.26L232.16-67.26Z" fill="none" stroke="#ce220f" stroke-width="21" stroke-linejoin="round" stroke-miterlimit="2"/><path transform="translate(12,71.72387150492682)rotate(0)" d="M48.37-67.26L48.37-67.26Q63.52-67.26 71.19-61.45L71.19-61.45L71.19-61.45Q78.87-55.64 78.87-44.43L78.87-44.43L78.87-44.43Q78.87-38.88 76.85-31.61L76.85-31.61L76.85-31.61Q73.52-19.89 67.86-13.03L67.86-13.03L67.86-13.03Q62.21-6.16 52.97-3.03L52.97-3.03L52.97-3.03Q43.73 0.10 29.29 0L29.29 0L1.82-0.10L1.82-0.10Q-0.30-0.10-1.46-0.81L-1.46-0.81L-1.46-0.81Q-2.63-1.51-2.63-2.73L-2.63-2.73L-2.63-2.73Q-2.63-3.33-2.32-4.04L-2.32-4.04L-2.32-4.04Q-2.02-4.95-1.46-5.35L-1.46-5.35L-1.46-5.35Q-0.91-5.76 0.20-6.46L0.20-6.46L0.20-6.46Q1.82-7.37 2.78-8.48L2.78-8.48L2.78-8.48Q3.74-9.59 4.44-12.02L4.44-12.02L16.76-55.44L16.76-55.44Q17.17-56.75 17.17-57.97L17.17-57.97L17.17-57.97Q17.17-59.08 16.81-59.83L16.81-59.83L16.81-59.83Q16.46-60.59 15.85-61.60L15.85-61.60L15.85-61.60Q14.95-62.91 14.95-63.72L14.95-63.72L14.95-63.72Q14.95-64.02 15.15-64.83L15.15-64.83L15.15-64.83Q15.55-66.14 16.91-66.70L16.91-66.70L16.91-66.70Q18.28-67.26 21.11-67.26L21.11-67.26L48.37-67.26ZM51.00-33.83L51.00-33.83Q53.62-43.32 53.62-48.78L53.62-48.78L53.62-48.78Q53.62-54.13 51.40-56.15L51.40-56.15L51.40-56.15Q49.18-58.17 45.04-58.17L45.04-58.17L42.82-58.17L29.18-9.09L31.61-9.09L31.61-9.09Q36.25-9.09 39.43-11.06L39.43-11.06L39.43-11.06Q42.62-13.03 45.34-18.33L45.34-18.33L45.34-18.33Q48.07-23.63 51.00-33.83L51.00-33.83ZM143.90-67.26L143.90-67.26Q147.64-67.26 149.71-65.64L149.71-65.64L149.71-65.64Q151.78-64.02 151.78-61.20L151.78-61.20L151.78-61.20Q151.78-59.78 151.38-58.47L151.38-58.47L148.75-49.08L148.75-49.08Q148.04-46.35 146.68-45.29L146.68-45.29L146.68-45.29Q145.32-44.23 142.79-44.23L142.79-44.23L142.79-44.23Q140.37-44.23 139.01-45.29L139.01-45.29L139.01-45.29Q137.64-46.35 136.94-48.78L136.94-48.78L135.32-54.53L135.32-54.53Q134.81-56.35 134.11-56.96L134.11-56.96L134.11-56.96Q133.40-57.56 131.38-57.56L131.38-57.56L120.78-57.56L115.73-39.59L120.17-39.59L120.17-39.59Q120.88-39.59 122.09-40.60L122.09-40.60L125.52-43.63L125.52-43.63Q127.04-44.94 128.15-45.54L128.15-45.54L128.15-45.54Q129.26-46.15 130.88-46.15L130.88-46.15L130.88-46.15Q132.69-46.15 133.86-45.19L133.86-45.19L133.86-45.19Q135.02-44.23 135.02-42.72L135.02-42.72L135.02-42.72Q135.02-42.31 134.81-41.50L134.81-41.50L130.67-27.47L130.67-27.47Q130.07-25.25 128.60-24.19L128.60-24.19L128.60-24.19Q127.14-23.13 125.42-23.13L125.42-23.13L125.42-23.13Q122.60-23.13 121.18-26.05L121.18-26.05L119.46-29.59L119.46-29.59Q118.76-31.10 117.24-31.10L117.24-31.10L113.30-31.10L107.35-9.69L116.23-9.69L116.23-9.69Q118.15-9.69 119.62-10.45L119.62-10.45L119.62-10.45Q121.08-11.21 122.80-13.13L122.80-13.13L128.86-19.79L128.86-19.79Q130.47-21.51 131.94-22.27L131.94-22.27L131.94-22.27Q133.40-23.02 135.52-23.02L135.52-23.02L135.52-23.02Q137.74-23.02 139.16-22.01L139.16-22.01L139.16-22.01Q140.57-21.00 140.57-18.99L140.57-18.99L140.57-18.99Q140.57-18.18 140.27-17.07L140.27-17.07L137.34-6.87L137.34-6.87Q136.23-3.03 134.11-1.51L134.11-1.51L134.11-1.51Q131.99 0 127.95 0L127.95 0L79.78 0L79.78 0Q77.66 0 76.50-0.71L76.50-0.71L76.50-0.71Q75.33-1.41 75.33-2.63L75.33-2.63L75.33-2.63Q75.33-3.23 75.64-3.94L75.64-3.94L75.64-3.94Q76.04-5.05 76.95-5.66L76.95-5.66L76.95-5.66Q77.86-6.26 78.06-6.36L78.06-6.36L78.06-6.36Q79.68-7.37 80.69-8.43L80.69-8.43L80.69-8.43Q81.70-9.49 82.40-11.92L82.40-11.92L94.82-55.44L94.82-55.44Q95.23-56.75 95.23-57.86L95.23-57.86L95.23-57.86Q95.23-59.08 94.88-59.88L94.88-59.88L94.88-59.88Q94.52-60.69 93.81-61.60L93.81-61.60L93.81-61.60Q92.91-62.91 92.91-63.72L92.91-63.72L92.91-63.72Q92.91-64.02 93.11-64.83L93.11-64.83L93.11-64.83Q93.51-66.14 94.93-66.70L94.93-66.70L94.93-66.70Q96.34-67.26 99.07-67.26L99.07-67.26L143.90-67.26ZM232.16-67.26L232.16-67.26Q234.49-67.26 235.70-66.40L235.70-66.40L235.70-66.40Q236.91-65.54 236.91-64.13L236.91-64.13L236.91-64.13Q236.91-63.52 236.81-63.22L236.81-63.22L236.81-63.22Q236.51-61.90 235.60-61.25L235.60-61.25L235.60-61.25Q234.69-60.59 232.67-59.78L232.67-59.78L232.67-59.78Q229.94-58.57 227.77-57.41L227.77-57.41L227.77-57.41Q225.60-56.25 222.77-53.82L222.77-53.82L202.68-36.76L212.47-12.93L212.47-12.93Q213.48-10.50 214.74-9.19L214.74-9.19L214.74-9.19Q216.01-7.88 217.82-6.66L217.82-6.66L217.82-6.66Q219.14-5.66 219.64-5.10L219.64-5.10L219.64-5.10Q220.15-4.54 220.15-3.53L220.15-3.53L220.15-3.53Q220.15-1.72 218.93-0.86L218.93-0.86L218.93-0.86Q217.72 0 214.90 0L214.90 0L187.73 0L187.73 0Q185.10 0 183.84-0.86L183.84-0.86L183.84-0.86Q182.58-1.72 182.58-3.13L182.58-3.13L182.58-3.13Q182.58-3.74 182.68-4.04L182.68-4.04L182.68-4.04Q182.88-4.75 183.39-5.30L183.39-5.30L183.39-5.30Q183.89-5.86 184.40-6.26L184.40-6.26L184.40-6.26Q185.21-6.97 185.61-7.57L185.61-7.57L185.61-7.57Q186.01-8.18 186.01-9.29L186.01-9.29L186.01-9.29Q186.01-11.01 184.90-13.73L184.90-13.73L181.37-22.32L172.18-13.73L172.18-13.73Q169.35-11.21 169.35-9.19L169.35-9.19L169.35-9.19Q169.35-8.28 169.76-7.67L169.76-7.67L169.76-7.67Q170.16-7.07 171.07-6.06L171.07-6.06L171.07-6.06Q171.98-5.15 172.43-4.34L172.43-4.34L172.43-4.34Q172.89-3.53 172.58-2.63L172.58-2.63L172.58-2.63Q172.18-1.11 170.92-0.56L170.92-0.56L170.92-0.56Q169.65 0 166.93 0L166.93 0L145.82 0L145.82 0Q143.50 0 142.29-0.86L142.29-0.86L142.29-0.86Q141.08-1.72 141.08-3.13L141.08-3.13L141.08-3.13Q141.08-3.74 141.18-4.04L141.18-4.04L141.18-4.04Q141.48-5.35 142.39-6.01L142.39-6.01L142.39-6.01Q143.30-6.66 145.32-7.47L145.32-7.47L145.32-7.47Q148.14-8.68 150.32-9.90L150.32-9.90L150.32-9.90Q152.49-11.11 155.21-13.43L155.21-13.43L177.23-32.32L168.14-54.33L168.14-54.33Q167.13-56.75 165.87-58.07L165.87-58.07L165.87-58.07Q164.61-59.38 162.79-60.59L162.79-60.59L162.79-60.59Q161.47-61.60 160.97-62.16L160.97-62.16L160.97-62.16Q160.46-62.71 160.46-63.72L160.46-63.72L160.46-63.72Q160.46-65.54 161.68-66.40L161.68-66.40L161.68-66.40Q162.89-67.26 165.72-67.26L165.72-67.26L192.88-67.26L192.88-67.26Q195.51-67.26 196.77-66.40L196.77-66.40L196.77-66.40Q198.03-65.54 198.03-64.13L198.03-64.13L198.03-64.13Q198.03-63.52 197.93-63.22L197.93-63.22L197.93-63.22Q197.73-62.51 197.22-61.95L197.22-61.95L197.22-61.95Q196.72-61.40 196.21-60.99L196.21-60.99L196.21-60.99Q195.41-60.29 195.00-59.68L195.00-59.68L195.00-59.68Q194.60-59.08 194.60-57.97L194.60-57.97L194.60-57.97Q194.60-56.35 195.71-53.52L195.71-53.52L198.54-46.76L205.81-53.52L205.81-53.52Q208.74-56.15 208.74-58.07L208.74-58.07L208.74-58.07Q208.74-58.98 208.28-59.63L208.28-59.63L208.28-59.63Q207.83-60.29 206.92-61.20L206.92-61.20L206.92-61.20Q206.72-61.40 206.16-62.06L206.16-62.06L206.16-62.06Q205.60-62.71 205.40-63.37L205.40-63.37L205.40-63.37Q205.20-64.02 205.40-64.63L205.40-64.63L205.40-64.63Q205.81-66.14 207.07-66.70L207.07-66.70L207.07-66.70Q208.33-67.26 211.06-67.26L211.06-67.26L232.16-67.26Z" fill="#FFFFFF"/></g></svg>