<svg xmlns="http://www.w3.org/2000/svg" width="300" height="250" viewBox="0 0 300 250"><g transform="translate(50.48808030112922,29.90603851577582)translate(99.34567126725177,95.22913792744828)rotate(0)translate(-99.34567126725177,-95.22913792744828) scale(0.5487589347329649,0.5487589347329649)" opacity="1"><defs class="defs"><linearGradient id="linearGradient34e5ec60e32c88a7c139870c4986db6b" class="linearGradient1" gradientTransform="translate(0.5,0.5) rotate(270) translate(-0.5,-0.5)" x1="50%" y1="0%" x2="50%" y2="100%"><stop id="stop1" offset="0%" class="linearGradientColor1" stop-color="#4df1fd"/><stop id="stop2" offset="100%" class="linearGradientColor2" stop-color="#9241fe"/></linearGradient><linearGradient id="linearGradient4f41bd9d0805f9c5a7df2c97e01bdb6b" class="linearGradient2" gradientTransform="translate(0.5,0.5) rotate(90) translate(-0.5,-0.5)" x1="50%" y1="0%" x2="50%" y2="100%"><stop id="stop1" offset="0%" class="linearGradientColor1" stop-color="#4df1fd"/><stop id="stop2" offset="100%" class="linearGradientColor2" stop-color="#9241fe"/></linearGradient><linearGradient id="linearGradient8d09081d0bf53ea0daa4b7ff2a18db6b" class="linearGradient3" gradientTransform="translate(0.5,0.5) rotate(0) translate(-0.5,-0.5)" x1="50%" y1="0%" x2="50%" y2="100%"><stop id="stop1" offset="0%" class="linearGradientColor1" stop-color="#4df1fd"/><stop id="stop2" offset="100%" class="linearGradientColor2" stop-color="#9241fe"/></linearGradient></defs><g>
    <path fill="url(#linearGradient34e5ec60e32c88a7c139870c4986db6b)" d="M46.117,184.352c0,12.765-10.293,23.059-23.058,23.059S0,197.117,0,184.352&#10;&#9;&#9;c0-12.765,10.293-23.059,23.058-23.059S46.117,171.587,46.117,184.352z M69.38,134.53c-11.117,0-19.97,8.853-19.97,19.97&#10;&#9;&#9;c0,11.118,8.853,19.972,19.97,19.972c11.117,0,19.97-8.854,19.97-19.972C89.352,143.382,80.499,134.53,69.38,134.53z&#10;&#9;&#9; M112.204,120.324c-9.058,0-16.47,7.412-16.47,16.47c0,9.059,7.412,16.471,16.47,16.471c9.059,0,16.469-7.412,16.469-16.471&#10;&#9;&#9;C128.673,127.737,121.263,120.324,112.204,120.324z M150.497,118.678c-7,0-12.56,5.559-12.56,12.559s5.56,12.558,12.56,12.558&#10;&#9;&#9;s12.559-5.559,12.559-12.558C163.056,124.442,157.497,118.678,150.497,118.678z M184.878,121.354&#10;&#9;&#9;c-5.971,0-10.913,4.94-10.913,10.912c0,5.971,4.941,10.912,10.913,10.912c5.971,0,10.912-4.941,10.912-10.912&#10;&#9;&#9;C195.791,126.294,190.849,121.354,184.878,121.354z M212.671,128.766c-4.94,0-9.059,4.117-9.059,9.059s4.117,9.06,9.059,9.06&#10;&#9;&#9;c4.943,0,9.06-4.117,9.06-9.06C221.524,132.882,217.613,128.766,212.671,128.766z M51.47,90.679c-11.118,0-19.97,8.853-19.97,19.97&#10;&#9;&#9;s8.853,19.97,19.97,19.97c11.117,0,19.97-8.853,19.97-19.97C71.439,99.531,62.381,90.679,51.47,90.679z M94.292,76.679&#10;&#9;&#9;c-9.058,0-16.47,7.411-16.47,16.47c0,9.058,7.412,16.47,16.47,16.47c9.059,0,16.47-7.412,16.47-16.47&#10;&#9;&#9;C110.763,83.883,103.351,76.679,94.292,76.679z M132.585,75.031c-7,0-12.559,5.559-12.559,12.559s5.559,12.56,12.559,12.56&#10;&#9;&#9;s12.559-5.56,12.559-12.56S139.585,75.031,132.585,75.031z M166.966,77.501c-5.971,0-10.911,4.941-10.911,10.911&#10;&#9;&#9;c0,5.971,4.94,10.912,10.911,10.912s10.912-4.94,10.912-10.912C177.673,82.443,172.937,77.501,166.966,77.501z M194.555,85.119&#10;&#9;&#9;c-4.94,0-9.06,4.118-9.06,9.06c0,4.939,4.119,9.058,9.06,9.058s9.06-4.118,9.06-9.058&#10;&#9;&#9;C203.613,89.031,199.496,85.119,194.555,85.119z M215.966,97.678c-4.117,0-7.617,3.5-7.617,7.617c0,4.118,3.5,7.617,7.617,7.617&#10;&#9;&#9;s7.617-3.5,7.617-7.617C223.583,101.179,220.289,97.678,215.966,97.678z M88.733,38.59c-9.059,0-16.47,7.412-16.47,16.471&#10;&#9;&#9;s7.412,16.47,16.47,16.47s16.47-7.411,16.47-16.47S97.792,38.59,88.733,38.59z M127.026,36.944c-7,0-12.558,5.559-12.558,12.559&#10;&#9;&#9;s5.559,12.56,12.558,12.56c7,0,12.559-5.56,12.559-12.56S134.026,36.944,127.026,36.944z M161.202,39.62&#10;&#9;&#9;c-5.971,0-10.912,4.941-10.912,10.911c0,5.971,4.941,10.912,10.912,10.912s10.912-4.941,10.912-10.912&#10;&#9;&#9;C172.114,44.356,167.378,39.62,161.202,39.62z M188.996,47.032c-4.94,0-9.059,4.117-9.059,9.059s4.118,9.06,9.059,9.06&#10;&#9;&#9;c4.94,0,9.06-4.118,9.06-9.06S193.936,47.032,188.996,47.032z M210.408,59.796c-4.119,0-7.619,3.5-7.619,7.617&#10;&#9;&#9;c0,4.118,3.5,7.618,7.619,7.618c4.117,0,7.616-3.5,7.616-7.618C218.024,63.09,214.73,59.796,210.408,59.796z M226.671,75.031&#10;&#9;&#9;c-3.705,0-6.793,3.088-6.793,6.794s3.088,6.794,6.793,6.794s6.793-3.089,6.793-6.794C233.464,77.913,230.376,75.031,226.671,75.031&#10;&#9;&#9;z" class="color c1"/>
    <path fill="url(#linearGradient4f41bd9d0805f9c5a7df2c97e01bdb6b)" d="M261.464,327.643c6.176,11.117,20.176,15.234,31.293,9.265c11.117-6.177,15.234-20.176,9.266-31.293&#10;&#9;&#9;c-6.178-11.118-20.176-15.235-31.293-9.265C259.611,302.525,255.494,316.525,261.464,327.643z M215.76,299.85&#10;&#9;&#9;c5.354,9.676,17.294,13.176,26.972,8.028c9.676-5.354,13.176-17.294,8.027-26.97c-5.354-9.677-17.295-13.177-26.971-8.029&#10;&#9;&#9;C214.113,278.026,210.613,290.174,215.76,299.85z M183.025,268.969c4.324,8.028,14.411,10.911,22.234,6.589&#10;&#9;&#9;c7.824-4.324,10.912-14.412,6.589-22.235c-4.324-8.029-14.412-10.912-22.233-6.588&#10;&#9;&#9;C181.585,251.057,178.702,260.938,183.025,268.969z M163.261,236.027c3.294,5.971,10.912,8.235,16.882,4.941&#10;&#9;&#9;c5.972-3.295,8.236-10.911,4.941-16.883c-3.293-5.971-10.911-8.234-16.881-4.94S159.966,230.058,163.261,236.027z M149.056,204.734&#10;&#9;&#9;c2.882,5.353,9.47,7.206,14.822,4.323c5.354-2.882,7.207-9.471,4.324-14.823c-2.882-5.354-9.471-7.205-14.822-4.323&#10;&#9;&#9;C148.231,192.794,146.173,199.382,149.056,204.734z M142.468,176.735c2.471,4.323,7.822,5.971,12.146,3.5&#10;&#9;&#9;c4.323-2.471,5.971-7.825,3.5-12.148c-2.47-4.323-7.822-5.971-12.146-3.5C141.644,166.853,139.997,172.411,142.468,176.735z&#10;&#9;&#9; M185.908,336.495c5.354,9.677,17.293,13.177,26.971,8.029c9.677-5.354,13.176-17.293,8.029-26.97&#10;&#9;&#9;c-5.354-9.677-17.295-13.177-26.972-8.029C184.261,314.673,180.761,326.819,185.908,336.495z M153.173,305.614&#10;&#9;&#9;c4.324,8.028,14.41,10.911,22.234,6.588c8.03-4.323,10.912-14.412,6.588-22.235c-4.323-8.028-14.413-10.91-22.234-6.588&#10;&#9;&#9;C151.731,287.703,148.85,297.79,153.173,305.614z M133.409,272.674c3.293,5.972,10.91,8.235,16.881,4.94&#10;&#9;&#9;c5.972-3.294,8.235-10.911,4.941-16.882c-3.294-5.97-10.912-8.234-16.882-4.94C132.173,259.086,130.114,266.703,133.409,272.674z&#10;&#9;&#9; M119.204,241.38c2.881,5.354,9.469,7.206,14.822,4.324c5.354-2.883,7.206-9.471,4.323-14.823&#10;&#9;&#9;c-2.882-5.354-9.47-7.205-14.823-4.322C118.38,229.645,116.32,236.233,119.204,241.38z M112.616,213.381&#10;&#9;&#9;c2.469,4.324,7.823,5.972,12.146,3.5c4.323-2.471,5.971-7.822,3.5-12.146c-2.47-4.323-7.823-5.971-12.146-3.5&#10;&#9;&#9;C111.792,203.705,110.145,209.058,112.616,213.381z M113.438,188.677c2.059,3.705,6.588,5.146,10.294,3.088&#10;&#9;&#9;c3.705-2.059,5.146-6.588,3.088-10.294c-2.059-3.705-6.588-5.146-10.294-3.089C112.82,180.44,111.379,184.97,113.438,188.677z&#10;&#9;&#9; M122.497,328.673c4.323,8.029,14.412,10.911,22.234,6.589c8.029-4.324,10.912-14.412,6.588-22.235&#10;&#9;&#9;c-4.324-8.029-14.412-10.911-22.234-6.588C121.057,310.761,118.173,320.849,122.497,328.673z M102.732,295.731&#10;&#9;&#9;c3.294,5.971,10.912,8.234,16.882,4.94c5.971-3.294,8.235-10.91,4.941-16.882c-3.294-5.971-10.912-8.233-16.882-4.94&#10;&#9;&#9;C101.498,282.144,99.438,289.762,102.732,295.731z M88.527,264.439c2.882,5.353,9.471,7.205,14.823,4.322&#10;&#9;&#9;c5.353-2.883,7.206-9.472,4.324-14.823c-2.882-5.354-9.471-7.205-14.823-4.323C87.705,252.703,85.646,259.291,88.527,264.439z&#10;&#9;&#9; M81.939,236.439c2.471,4.323,7.823,5.97,12.147,3.5c4.323-2.471,5.97-7.824,3.5-12.147c-2.471-4.321-7.824-5.97-12.147-3.499&#10;&#9;&#9;C81.117,226.764,79.469,232.115,81.939,236.439z M82.764,211.733c2.059,3.707,6.588,5.146,10.293,3.089&#10;&#9;&#9;c3.706-2.059,5.147-6.588,3.088-10.294c-2.059-3.705-6.588-5.146-10.294-3.089C82.145,203.499,80.705,208.028,82.764,211.733z&#10;&#9;&#9; M88.322,190.117c1.853,3.293,5.97,4.529,9.265,2.677c3.294-1.854,4.529-5.971,2.676-9.265s-5.971-4.529-9.265-2.677&#10;&#9;&#9;C87.705,182.706,86.469,186.823,88.322,190.117z" class="color c2"/>
    <path fill="url(#linearGradient8d09081d0bf53ea0daa4b7ff2a18db6b)" d="M291.111,35.502c6.795-10.706,3.707-25.116-7.205-31.911c-10.705-6.794-25.117-3.705-31.912,7.206&#10;&#9;&#9;c-6.793,10.706-3.705,25.117,7.207,31.911C270.111,49.502,284.318,46.208,291.111,35.502z M288.847,89.031&#10;&#9;&#9;c5.971-9.265,3.088-21.618-6.178-27.588c-9.264-5.97-21.617-3.088-27.588,6.176c-5.969,9.266-3.088,21.617,6.178,27.587&#10;&#9;&#9;C270.73,101.178,283.082,98.295,288.847,89.031z M277.935,132.677c4.941-7.617,2.678-17.911-5.146-22.646&#10;&#9;&#9;c-7.617-4.941-17.91-2.676-22.646,5.147c-4.939,7.616-2.676,17.911,5.146,22.646C262.906,142.56,272.994,140.294,277.935,132.677z&#10;&#9;&#9; M258.789,166.03c3.705-5.765,2.059-13.588-3.912-17.294c-5.764-3.706-13.588-2.059-17.293,3.912&#10;&#9;&#9;c-3.707,5.765-2.059,13.588,3.91,17.293C247.259,173.441,255.082,171.793,258.789,166.03z M238.201,193.41&#10;&#9;&#9;c3.293-5.146,1.646-11.732-3.295-15.028c-5.146-3.294-11.734-1.646-15.027,3.296c-3.295,5.146-1.647,11.732,3.293,15.027&#10;&#9;&#9;C228.113,199.999,234.906,198.559,238.201,193.41z M216.996,212.97c2.676-4.117,1.44-9.678-2.678-12.354&#10;&#9;&#9;c-4.117-2.676-9.676-1.439-12.354,2.677c-2.676,4.118-1.44,9.678,2.678,12.354S214.318,217.087,216.996,212.97z M335.58,97.267&#10;&#9;&#9;c5.971-9.266,3.09-21.617-6.176-27.587c-9.266-5.971-21.617-3.089-27.588,6.176c-5.971,9.264-3.088,21.617,6.176,27.587&#10;&#9;&#9;C317.257,109.413,329.609,106.737,335.58,97.267z M324.462,140.911c4.941-7.617,2.676-17.911-5.145-22.646&#10;&#9;&#9;c-7.617-4.941-17.912-2.678-22.648,5.146c-4.939,7.617-2.676,17.911,5.148,22.646C309.433,150.999,319.523,148.736,324.462,140.911&#10;&#9;&#9;z M305.316,174.265c3.707-5.766,2.059-13.588-3.912-17.294c-5.764-3.706-13.588-2.06-17.293,3.911&#10;&#9;&#9;c-3.705,5.765-2.059,13.589,3.912,17.294C293.787,181.882,301.611,180.029,305.316,174.265z M284.728,201.852&#10;&#9;&#9;c3.295-5.147,1.646-11.735-3.295-15.029c-5.145-3.294-11.732-1.646-15.027,3.294c-3.295,5.146-1.646,11.734,3.295,15.029&#10;&#9;&#9;C274.847,208.44,281.435,206.793,284.728,201.852z M263.523,221.205c2.676-4.118,1.441-9.677-2.678-12.353&#10;&#9;&#9;c-4.115-2.678-9.676-1.441-12.352,2.676s-1.441,9.677,2.676,12.353C255.289,226.558,260.847,225.322,263.523,221.205z&#10;&#9;&#9; M241.494,232.527c2.266-3.5,1.236-8.234-2.264-10.499c-3.502-2.266-8.234-1.235-10.5,2.265c-2.266,3.499-1.234,8.234,2.266,10.499&#10;&#9;&#9;C234.496,237.057,239.23,236.027,241.494,232.527z M359.462,156.559c4.941-7.618,2.676-17.911-5.146-22.646&#10;&#9;&#9;c-7.617-4.94-17.91-2.676-22.646,5.147c-4.939,7.618-2.676,17.911,5.146,22.646C344.433,166.647,354.726,164.381,359.462,156.559z&#10;&#9;&#9; M340.316,189.911c3.705-5.765,2.059-13.588-3.912-17.294c-5.766-3.706-13.588-2.059-17.293,3.912&#10;&#9;&#9;c-3.707,5.765-2.061,13.589,3.91,17.295C328.992,197.528,336.611,195.677,340.316,189.911z M319.728,217.498&#10;&#9;&#9;c3.293-5.146,1.646-11.733-3.295-15.027c-5.146-3.295-11.734-1.646-15.029,3.294c-3.293,5.146-1.646,11.733,3.295,15.028&#10;&#9;&#9;C309.845,224.087,316.64,222.439,319.728,217.498z M298.523,236.852c2.676-4.118,1.439-9.678-2.678-12.354&#10;&#9;&#9;c-4.117-2.676-9.676-1.439-12.352,2.677c-2.678,4.117-1.441,9.678,2.676,12.354C290.494,242.204,295.845,240.969,298.523,236.852z&#10;&#9;&#9; M276.494,248.174c2.266-3.5,1.234-8.233-2.266-10.499c-3.498-2.265-8.234-1.234-10.498,2.266c-2.266,3.5-1.236,8.233,2.264,10.499&#10;&#9;&#9;C269.494,252.703,274.228,251.675,276.494,248.174z M254.876,253.733c2.059-3.088,1.029-7.412-2.059-9.471&#10;&#9;&#9;c-3.088-2.06-7.412-1.03-9.471,2.059c-2.061,3.088-1.029,7.412,2.059,9.471C248.701,257.851,252.818,256.821,254.876,253.733z" class="color c3"/>
  </g></g></svg>